<svg width="43" height="41" viewBox="0 0 43 41" fill="none" xmlns="http://www.w3.org/2000/svg">
<path d="M16.4455 0.940094C16.5125 1.16063 17.2272 4.07165 18.0312 7.40169C19.4605 13.5325 20.1528 16.2009 20.4655 16.9728C20.8452 17.8329 20.0858 17.1933 19.4828 16.1127C18.5002 14.3705 11.4205 3.14542 11.0855 2.79256C10.9292 2.63819 10.6165 2.57203 10.3708 2.63819C9.65616 2.85873 3.55916 9.07774 3.6485 9.5188C3.67083 9.71728 3.96116 10.0701 4.27383 10.2907C5.30116 10.9964 16.7135 17.9431 17.6515 18.4063C18.5448 18.8694 18.9915 19.531 18.1875 19.2002C17.9642 19.112 15.8202 18.5606 13.4305 17.9872C2.44249 15.3409 1.50449 15.1424 1.21416 15.385C0.990828 15.5614 0.923828 16.7743 0.923828 20.4131C0.923828 24.4929 0.968495 25.2428 1.25883 25.353C1.43749 25.4192 4.1845 24.8679 7.35583 24.1401C15.5745 22.2435 16.6018 22.0009 17.6292 21.6481C18.9692 21.1629 18.9692 21.5819 17.6068 22.2876C16.5348 22.8831 12.7828 25.1325 6.3955 29.058C4.8545 30.0063 3.69316 30.8663 3.6485 31.1089C3.53683 31.6382 9.99116 38.0557 10.6388 38.0557C10.9738 38.0557 11.9118 36.7325 14.6588 32.366C16.6242 29.2564 18.6788 25.9264 19.2148 24.9781C19.7508 24.0519 20.2868 23.28 20.3985 23.28C20.5325 23.28 20.5548 23.4564 20.4655 23.6549C20.2198 24.3165 19.0808 28.8374 17.6962 34.6374C16.4902 39.6656 16.4008 40.1949 16.7135 40.5256C17.0262 40.8785 17.5622 40.9226 21.6045 40.9226C25.4235 40.9226 26.1828 40.8785 26.4732 40.5698C26.6742 40.3933 26.8305 40.2169 26.8305 40.1728C26.8305 40.1066 24.2622 29.4329 23.5698 26.6101C23.2795 25.353 22.9222 24.1401 22.8105 23.9196C22.6765 23.699 22.6765 23.4785 22.7882 23.4123C22.8775 23.3462 23.8825 24.8017 24.9992 26.6542C29.6445 34.2625 32.0788 37.9454 32.5255 38.0116C33.1508 38.0998 39.6498 31.6823 39.5158 31.0869C39.4712 30.8443 37.5505 29.5211 34.3122 27.5363C31.4758 25.8161 28.6172 24.0519 27.9472 23.6329C27.2772 23.2139 26.2498 22.6405 25.6692 22.3538C24.0165 21.5599 24.3515 21.2952 26.3392 21.8466C27.2772 22.1333 31.1632 23.0815 34.9598 23.9416C41.5705 25.4853 41.8832 25.5294 42.1735 25.1545C42.3968 24.8458 42.4638 23.677 42.4638 20.3028C42.4638 14.8116 42.5308 14.9218 40.0072 15.5614C39.0915 15.7819 36.1212 16.4656 33.4188 17.1051C28.2822 18.296 25.6468 18.9576 24.9992 19.2002C24.2175 19.5089 24.6195 18.9355 25.5575 18.4283C26.4732 17.9211 31.1855 15.0762 36.8135 11.6139C38.8458 10.3789 39.5605 9.82755 39.5605 9.49675C39.5605 8.87926 33.0615 2.48382 32.5255 2.59409C32.3022 2.61614 31.6322 3.45416 31.0068 4.4245C26.8752 10.9964 24.1505 15.385 23.5922 16.3774C22.8552 17.7226 22.4755 17.7226 22.9445 16.3774C23.2348 15.5173 24.4185 10.7317 25.9372 4.20397C26.3168 2.61614 26.6742 1.16063 26.7412 0.940094C26.8528 0.587242 26.4955 0.565189 21.5822 0.565189C16.6242 0.565189 16.2892 0.587242 16.4455 0.940094ZM25.4905 1.88838C25.4905 2.13097 24.7982 5.24047 23.9495 8.79105C23.1008 12.3416 22.3415 15.6496 22.2522 16.1789C22.1182 16.9948 22.0288 17.1272 21.6268 17.061C21.2918 17.0169 21.0908 16.7743 20.9792 16.223C20.8898 15.804 20.2868 13.2679 19.6615 10.5994C17.7185 2.37355 17.6515 2.04276 17.7632 1.73401C17.8525 1.51348 18.7235 1.44732 21.6938 1.44732C25.3565 1.44732 25.4905 1.46937 25.4905 1.88838ZM11.7332 5.35074C12.2692 6.18876 14.0335 8.98952 15.6638 11.5918C17.3165 14.1941 18.8798 16.642 19.1702 17.0169C19.6838 17.7006 19.6838 17.7006 19.2372 18.0975C18.8128 18.4724 18.7682 18.4724 18.0535 17.8549C17.6292 17.5021 14.5248 15.5173 11.1302 13.4663C7.6015 11.3272 4.96616 9.58496 4.94383 9.38648C4.94383 8.98952 10.0582 3.87317 10.4602 3.87317C10.6165 3.87317 11.1972 4.53477 11.7332 5.35074ZM35.6075 6.47546C37.0368 7.88686 38.2205 9.21006 38.2205 9.38648C38.2205 9.69523 35.5628 11.3933 27.9918 15.9583C26.9198 16.6199 25.6692 17.4359 25.2002 17.8108C24.3962 18.4283 24.3292 18.4504 23.9272 18.0975C23.5252 17.7447 23.5252 17.7006 24.2622 16.7082C24.6642 16.1348 26.5848 13.1355 28.5055 10.0481C32.4138 3.80701 32.3692 3.87317 32.7265 3.87317C32.8605 3.87317 34.1558 5.042 35.6075 6.47546ZM16.2222 19.5089C17.9418 19.8397 18.2322 19.972 18.2992 20.391C18.3438 20.7218 18.2545 20.8542 17.9865 20.8542C17.7632 20.8542 14.1452 21.6481 9.92416 22.6405C5.70316 23.6108 2.17449 24.3386 2.04049 24.2724C1.70549 24.0739 1.75016 16.5097 2.08516 16.3994C2.21916 16.3553 5.01083 16.9287 8.2715 17.7006C11.5322 18.4724 15.1278 19.2663 16.2222 19.5089ZM41.3472 20.2808C41.3472 22.5523 41.2578 24.1842 41.1238 24.2724C41.0122 24.3386 37.6622 23.6549 33.7092 22.7287C29.7338 21.8245 26.1382 20.9865 25.7138 20.8983C25.1555 20.788 24.9322 20.6116 24.9322 20.3249C24.9322 19.972 25.3342 19.8397 27.3888 19.3987C28.7512 19.134 32.1012 18.3621 34.8705 17.7006C37.6398 17.039 40.2305 16.4876 40.6325 16.4656L41.3472 16.4435V20.2808ZM23.1678 18.7371C23.7932 19.3545 23.9272 19.6633 23.9272 20.4131C23.9272 21.7142 23.0115 22.6184 21.6492 22.6184C18.3885 22.5964 18.5002 18.0755 21.7832 18.0093C22.2075 17.9872 22.6542 18.2298 23.1678 18.7371ZM19.4382 22.6846C19.6168 22.9051 19.5275 23.1698 19.1032 23.7431C18.7905 24.1621 16.7805 27.2937 14.6365 30.712C12.4702 34.1523 10.6388 36.953 10.5495 36.953C10.4825 36.953 9.16483 35.718 7.62383 34.1964C5.43516 32.0352 4.87683 31.3736 5.0555 31.1089C5.1895 30.9325 8.0035 29.1241 11.3088 27.1173C14.6365 25.0884 17.6515 23.1918 18.0088 22.9051C18.7682 22.3317 19.0808 22.2876 19.4382 22.6846ZM25.7138 23.258C26.3838 23.7211 29.3542 25.5736 32.3022 27.3599C35.2502 29.1462 37.8408 30.7781 38.0642 30.9987C38.4662 31.3515 38.3545 31.4838 35.6522 34.1964C32.8828 36.9089 32.7935 36.9751 32.3915 36.6002C32.1682 36.3576 30.4708 33.7553 28.6172 30.7781C26.7412 27.8009 24.8875 24.912 24.4632 24.3165C23.7262 23.3021 23.5475 22.839 23.8602 22.5523C24.1282 22.2656 24.4632 22.3979 25.7138 23.258ZM22.1852 24.2724C22.2745 24.6473 22.6095 26.1249 22.9445 27.5804C23.2572 29.0359 23.9718 32.0131 24.4855 34.1964C25.0215 36.3796 25.5352 38.5409 25.6022 38.9819L25.7585 39.8199H21.7385C19.5052 39.8199 17.6515 39.7317 17.5845 39.6215C17.5175 39.5333 18.1428 36.512 18.9915 32.9614C19.8402 29.3888 20.6442 25.8823 20.8005 25.1545C20.9568 24.4268 21.1132 23.7431 21.1802 23.6549C21.4035 23.28 22.0288 23.6549 22.1852 24.2724Z" fill="black"/>
</svg>
